<?xml version="1.0" encoding="UTF-8"?>
<svg id="Layer_2" data-name="Layer 2" xmlns="http://www.w3.org/2000/svg" viewBox="0 0 126.15 208.37">
  <defs>
    <style>
      .cls-1 {
        fill: #f1f2f2;
      }

      .cls-2 {
        fill: #d466a7;
      }

      .cls-3 {
        fill: #231f20;
      }

      .cls-4 {
        fill: #761850;
      }
    </style>
  </defs>
  <g id="Layer_2-2" data-name="Layer 2">
    <g id="Circle">
      <path class="cls-2" d="m124.08,118.29c-9.42-5.3-12.28-16.41-24.65-16.78-20.5,6.98-30.11,49.99-36.53,66.52-1.6,3.83-26.16,63.1-36.53,30.68C9.74,168.93,5.82,128.69,1.71,95.4c-.55-7.1-6.63-36.19,11.19-23.92,19.59,4.98,36.89-14.56,49.99-25.82,22.64-16.95,35.93-16.13,49.99,10.02,6.32,17.27,17.62,44.11,11.19,62.61Z"/>
    </g>
    <g id="Circle-2" data-name="Circle">
      <path class="cls-4" d="m124.08,109.76c-9.42-5.3-12.28-16.41-24.65-16.78-20.5,6.98-30.11,49.99-36.53,66.52-1.6,3.83-26.16,63.1-36.53,30.68C9.74,160.39,5.82,120.16,1.71,86.87c-.55-7.1-6.63-36.19,11.19-23.92,19.59,4.98,36.89-14.56,49.99-25.82,22.64-16.95,35.93-16.13,49.99,10.02,6.32,17.27,17.62,44.11,11.19,62.61Z"/>
    </g>
    <g id="Circle-3" data-name="Circle">
      <path class="cls-1" d="m115.88,94.02c-2.99,1.41-10.82-16.8-23.16-9.23-19.96,13.76-27.39,43.4-35.16,64.61-1.79,4.54-18.16,52.86-29.41,27.45-12.61-25.1-15.74-56.76-18.51-84.33-.12-3.59-5.1-30.85,9.56-22.15,16.89,3.39,32.35-14.88,43.33-24.56,14-10.9,34.62-23.31,43.82,1.07,5.37,13.03,14.44,32.7,9.52,47.15Z"/>
    </g>
    <g>
      <g>
        <path class="cls-3" d="m34.6,167.46c-.3-2.03-.86-4.39-2.36-10.32-.2-.79-.35-1.55-.39-2.07-1.38-13.51-2.95-26.98-4.13-40.51-.18-2.5-1.49-6.3-2.07-6.09-2.58.94-3.82,1.04-5.99-.2-.3-.17-.99-2.03-1.51-4.01-3.16-11.95-4.55-17.32-5.03-20.58-.08-.54.16-.6.45-.43,6.69,3.66,13.12.29,22.41-5.3.41-.25.73-.27.78.16.23,2.28.9,5.45,2.53,12.81.16.72.23,1.51.2,2.15-.53,12.19-.16,24.41.34,36.6.1,2.62,1.23,5.83,1.73,4.92,1.95-3.58,2.92-5.62,4.76-9.46.28-.59.78.15,1.09,1.57,1.74,7.85,2.48,11.29,2.72,13.67.04.43-.15,1.18-.39,1.9-2.22,6.49-5.43,23.93-14.54,26.25-.28-.12-.51-.49-.59-1.03Z"/>
        <path class="cls-3" d="m52.22,134.15c-2.91-19.68-8.82-38.8-11.86-58.46-.03-.4.29-.78.65-1.04,3.51-2.45,4.95-3.6,7.07-5.5.22-.2.41-.15.45.28,2.45,17.86,6.83,35.39,9.42,53.23.04.43-.15.86-.37,1.09-2.11,2.12-2.86,3.96-4.95,9.84-.22.61-.38.96-.41.56Z"/>
        <path class="cls-3" d="m78.6,87.99c-.1-2.29-.41-4.94-1.12-10.78-.25-2.01-1.23-1.4-1.19.83.12,7.37.17,10.93-.41,14.33-.07.39-.28.87-.52,1.27-1.54,2.57-2.33,3.99-3.9,6.84-.24.44-.46.7-.55.57-.83-1.08-1.63-3.5-3.44-9.18-.56-1.76-1.42.3-1.05,2.54,1.02,6.3,1.46,9.13,1.67,11.57.04.43-.21,1.13-.51,1.7-2.75,5.11-4.11,7.68-6.49,11.42-.27.42-.48.5-.53.06-2.57-17.58-6.71-34.9-9.16-52.5-.04-.44.19-.92.5-1.24,3.85-3.99,6.4-6.88,11.38-11.87.31-.31.59-.45.7-.26,1.17,1.97,2.38,6.03,4.61,13.77.48,1.67,1.34.62,1.27-1.49-.34-9.8-.43-14.55.43-18.2.08-.35.35-.71.66-.97,4.88-4.09,6.92-5.14,10.62-5.85.29-.06.54.16.56.57,1.07,13.42,2.83,26.78,3.69,40.23,0,.39-.21.74-.47.87-2.37,1.26-3.5,1.98-6.18,5.63-.29.4-.53.53-.55.14Z"/>
        <path class="cls-3" d="m100.88,76.31c-.09-.62-.14-.98-.27-1.76-.06-.36-.26-.63-.49-.63-1.72.04-2.58.19-4.3.62-.23.06-.43.41-.49.83-.13.91-.21,1.32-.37,2.01-.08.32-.29.56-.52.63-2.69.91-4.02,1.57-6.6,2.89-.33.17-.55-.08-.46-.62,1.17-13.24.38-26.53,1.34-39.78.04-.35.23-.56.47-.54,4.95.33,7.51.98,11.49,5.69.19.23.42.74.57,1.26,2.61,10.31,5.04,20.62,7.39,30.99.1.43-.15.64-.5.47-2.72-1.35-4.09-1.59-6.8-1.59-.23,0-.41-.17-.46-.46Zm-4.54-21.13c-.11,2.87-.17,4.4-.32,7.38-.05.93.28,1.89.64,1.91.74.04,1.11.08,1.85.2.36.06.55-.75.38-1.64-.57-2.87-.88-4.43-1.52-7.49-.28-1.34-.98-1.62-1.02-.37Z"/>
      </g>
      <g>
        <path class="cls-2" d="m35.85,167.92c-.32-2.1-.89-4.47-2.39-10.38-.2-.79-.34-1.57-.39-2.14-1.26-13.93-2.72-27.82-3.79-41.76-.16-2.53-1.43-6.19-2.03-5.89-2.64,1.35-3.92,1.71-6.22,1.08-.32-.09-1.02-1.86-1.53-3.83-3.13-11.88-4.52-17.22-5.04-20.6-.09-.56.17-.68.49-.57,7.32,2.42,13.84-1.29,22.84-7.03.4-.25.71-.29.74.13.2,2.2.83,5.28,2.37,12.41.15.7.22,1.46.19,2.09-.57,11.96-.28,23.95.13,35.91.08,2.6,1.17,5.68,1.66,4.73,1.93-3.74,2.88-5.8,4.68-9.55.27-.57.75.14,1.05,1.51,1.65,7.61,2.34,10.94,2.55,13.25.04.41-.16,1.14-.39,1.83-2.84,8.53-5.76,23.96-14.31,29.62-.28.02-.51-.25-.6-.81Z"/>
        <path class="cls-2" d="m53.19,131.45c-3.03-19.1-8.36-37.78-11.21-56.91-.03-.39.28-.77.62-1.02,3.3-2.41,4.13-3.04,6.53-5.35.25-.24.47-.22.51.22,2.47,17.77,6.75,35.24,9.35,53,.04.44-.15.93-.39,1.22-2.26,2.78-2.96,3.07-5.01,8.37-.21.55-.37.86-.4.46Z"/>
        <path class="cls-2" d="m79.91,86.23c-.09-2.27-.38-4.89-1.05-10.63-.23-1.98-1.18-1.49-1.16.68.09,7.17.13,10.64-.46,13.93-.07.38-.28.83-.52,1.2-1.52,2.4-2.31,3.76-3.87,6.54-.24.43-.46.68-.55.56-.82-1.07-1.59-3.45-3.35-9.02-.55-1.73-1.42.32-1.07,2.53.97,6.2,1.39,8.98,1.59,11.39.03.42-.21,1.12-.53,1.7-2.79,5.18-4.18,7.86-6.66,12.01-.28.46-.5.58-.55.14-2.52-17.43-6.56-34.6-8.97-52.04-.04-.44.21-.95.53-1.29,4.11-4.32,6.74-7.27,11.74-12.14.31-.31.59-.43.7-.25,1.16,1.95,2.32,5.95,4.48,13.59.46,1.64,1.32.65,1.26-1.42-.28-9.59-.35-14.23.51-17.77.08-.34.35-.68.64-.91,4.76-3.7,6.48-4.11,10.23-4.71.3-.05.55.19.57.62,1.09,13.27,2.79,26.48,3.54,39.78,0,.39-.22.74-.48.88-2.39,1.26-3.45,1.44-6.05,4.58-.29.35-.52.43-.53.05Z"/>
        <path class="cls-2" d="m102.15,76.33c-.09-.62-.15-.97-.27-1.75-.06-.36-.26-.63-.49-.64-1.72-.09-2.58,0-4.3.32-.23.04-.43.38-.49.79-.14.89-.21,1.29-.39,1.97-.08.31-.29.55-.52.61-2.71.78-4.04,1.4-6.65,2.68-.33.16-.55-.1-.45-.64,1.28-12.98.62-26.03,1.5-39.04.04-.36.23-.56.46-.53,4.92.66,7.42,1.56,11.2,6.92.18.26.41.8.56,1.34,2.63,10.09,5.07,20.21,7.59,30.33.11.43-.14.6-.48.38-2.72-1.65-4.09-2.02-6.81-2.24-.23-.02-.42-.2-.46-.49Zm-4.47-20.68c-.11,2.75-.17,4.21-.33,7.07-.05.89.27,1.84.63,1.89.74.1,1.1.16,1.83.35.36.09.55-.66.38-1.53-.56-2.79-.86-4.31-1.5-7.31-.28-1.32-.96-1.65-1.01-.45Z"/>
      </g>
    </g>
  </g>
</svg>